# xmcd
#
# Track frame offsets: 
#        150
#        16190
#        37013
#        55814
#        73179
#        85513
#        104429
#        118957
#        135406
#        151272
#        169681
#        190949
#        208658
#        223304
#        242452
#        262728
#        281622
#        296004
#
# Disc length: 4175 seconds
#
# Revision: 0
# Processed by: cddbd v1.5.2PL0 Copyright (c) Steve Scherf et al.
# Submitted via: ExactAudioCopy v1.3
#
DISCID=05104d12
DTITLE=Revivo Project - Sheyeda Kol Haolam
DYEAR=2015
DGENRE=Jewish
TTITLE0=? - Sheyeda Kol Haolam
TTITLE1=? - Gozal Sheli
TTITLE2=? - Al Tikrei Li Yeled
TTITLE3=? - Ce'esh Halehava
TTITLE4=? - Ma Yihiye
TTITLE5=? - Ahava Bashchakim
TTITLE6=? - Prachim Shalachti
TTITLE7=? - Anuga
TTITLE8=? - Alufa
TTITLE9=? - Eynaim Atzuvot
TTITLE10=? - Beleil Yareach
TTITLE11=? - Imi Imi
TTITLE12=? - Eifo Hayamim
TTITLE13=? - Ela
TTITLE14=? - Ein Bi Ta'Pahad
TTITLE15=? - Od Yom Over
TTITLE16=? - Kol Bokea
TTITLE17=? - Melech Chay VeKayam
EXTD=
EXTT0=
EXTT1=
EXTT2=
EXTT3=
EXTT4=
EXTT5=
EXTT6=
EXTT7=
EXTT8=
EXTT9=
EXTT10=
EXTT11=
EXTT12=
EXTT13=
EXTT14=
EXTT15=
EXTT16=
EXTT17=
PLAYORDER=
